<svg xmlns="http://www.w3.org/2000/svg" viewBox="0 0 434 162" width="434" height="162"><rect x="0" y="0" width="434" height="162" fill="#0c0c0e"/><g transform="translate(0,0)"><g transform="translate(6,0) scale(0.42)"><polyline points="70,10 30,120" fill="none" stroke="#f5d76e" stroke-width="7" stroke-linecap="square" stroke-linejoin="miter"/><polyline points="30,120 55,120" fill="none" stroke="#f5d76e" stroke-width="7" stroke-linecap="square" stroke-linejoin="miter"/></g><g transform="translate(48,0) scale(0.42)"><polyline points="10,96 50,96" fill="none" stroke="#f5d76e" stroke-width="7" stroke-linecap="square" stroke-linejoin="miter"/></g><g transform="translate(73.2,0) scale(0.42)"><polyline points="30,10 30,120" fill="none" stroke="#f5d76e" stroke-width="7" stroke-linecap="square" stroke-linejoin="miter"/><polyline points="30,60 68,44" fill="none" stroke="#f5d76e" stroke-width="7" stroke-linecap="square" stroke-linejoin="miter"/></g><g transform="translate(115.2,0) scale(0.42)"><polyline points="10,120 30,76 50,120" fill="none" stroke="#f5d76e" stroke-width="7" stroke-linecap="square" stroke-linejoin="miter"/></g><g transform="translate(140.4,0) scale(0.42)"><polyline points="30,10 30,120" fill="none" stroke="#f5d76e" stroke-width="7" stroke-linecap="square" stroke-linejoin="miter"/><polyline points="30,10 70,10 70,45 30,45" fill="none" stroke="#f5d76e" stroke-width="7" stroke-linecap="square" stroke-linejoin="miter"/></g><g transform="translate(182.4,0) scale(0.42)"><polyline points="10,120 30,76 50,120" fill="none" stroke="#f5d76e" stroke-width="7" stroke-linecap="square" stroke-linejoin="miter"/></g><text x="223.6" y="42" fill="#8c8a82" font-family="Share Tech Mono, monospace" font-size="12">careful hand — fully spelled</text></g><g transform="translate(0,81)"><g transform="translate(6,0) scale(0.42)"><polyline points="70,10 30,120" fill="none" stroke="#6fa8ff" stroke-width="7" stroke-linecap="square" stroke-linejoin="miter"/><polyline points="30,120 55,120" fill="none" stroke="#6fa8ff" stroke-width="7" stroke-linecap="square" stroke-linejoin="miter"/></g><g transform="translate(48,0) scale(0.42)"><polyline points="10,96 50,96" fill="none" stroke="#6fa8ff" stroke-width="7" stroke-linecap="square" stroke-linejoin="miter"/></g><g transform="translate(73.2,0) scale(0.42)"><polyline points="30,10 30,120" fill="none" stroke="#6fa8ff" stroke-width="7" stroke-linecap="square" stroke-linejoin="miter"/><polyline points="30,60 68,44" fill="none" stroke="#6fa8ff" stroke-width="7" stroke-linecap="square" stroke-linejoin="miter"/></g><g transform="translate(115.2,0) scale(0.42)"><polyline points="12,80 48,80 48,118 12,118 12,80" fill="none" stroke="#6fa8ff" stroke-width="7" stroke-linecap="square" stroke-linejoin="miter"/></g><g transform="translate(140.4,0) scale(0.42)"><polyline points="4,112 18,84 32,112 46,84" fill="none" stroke="#6fa8ff" stroke-width="7" stroke-linecap="square" stroke-linejoin="miter"/></g><text x="181.6" y="42" fill="#8c8a82" font-family="Share Tech Mono, monospace" font-size="12">bridge hand — sigils</text></g></svg>